<svg id="baseline-grid_on-24px" xmlns="http://www.w3.org/2000/svg" width="22" height="22" viewBox="0 0 22 22">
  <path id="Path_193" data-name="Path 193" d="M0,0H22V22H0Z" fill="none"/>
  <path id="Path_194" data-name="Path 194" d="M18.5,2H3.833A1.839,1.839,0,0,0,2,3.833V18.5a1.839,1.839,0,0,0,1.833,1.833H18.5A1.839,1.839,0,0,0,20.333,18.5V3.833A1.839,1.839,0,0,0,18.5,2ZM7.5,18.5H3.833V14.833H7.5Zm0-5.5H3.833V9.333H7.5Zm0-5.5H3.833V3.833H7.5Zm5.5,11H9.333V14.833H13ZM13,13H9.333V9.333H13Zm0-5.5H9.333V3.833H13Zm5.5,11H14.833V14.833H18.5Zm0-5.5H14.833V9.333H18.5Zm0-5.5H14.833V3.833H18.5Z" transform="translate(-0.167 -0.167)" fill="#767680"/>
</svg>
