<svg xmlns="http://www.w3.org/2000/svg" xmlns:xlink="http://www.w3.org/1999/xlink" width="1020" height="64" viewBox="0 0 1020 64">
  <defs>
    <clipPath id="clip-path">
      <rect width="18.044" height="18" fill="none"/>
    </clipPath>
    <clipPath id="clip-path-2">
      <rect width="18" height="18" fill="none"/>
    </clipPath>
    <clipPath id="clip-path-3">
      <rect width="22.861" height="16" fill="none"/>
    </clipPath>
  </defs>
  <g id="Group_282" data-name="Group 282" transform="translate(-445 -120)">
    <rect id="Rectangle_9" data-name="Rectangle 9" width="1020" height="64" rx="3" transform="translate(445 120)" fill="#fff"/>
    <text id="What_is_your_name_" data-name="What is your name?" transform="translate(529 158)" fill="#333340" font-size="15" font-family="SegoeUI, Segoe UI"><tspan x="0" y="0">What is your name?</tspan></text>
    <g id="move" transform="translate(1341 143)" clip-path="url(#clip-path)">
      <path id="move-2" data-name="move" d="M17.781,8.4,15.252,5.9A.888.888,0,1,0,14,7.158l.989.989H9.9V3.019L11.1,4.227a.805.805,0,0,0,.63.263.881.881,0,0,0,.621-1.505L9.626.263a.877.877,0,0,0-1.251,0L5.749,2.888A.882.882,0,1,0,7,4.13L8.129,3.01V8.129H3.019L4.174,7A.885.885,0,0,0,3.036,5.644l-.1.1L.263,8.383a.866.866,0,0,0,0,1.243l2.564,2.625a.875.875,0,0,0,.621.263h0a.881.881,0,0,0,.621-1.505L3.01,9.9H8.129v5.11L7,13.852a.879.879,0,0,0-1.225,1.26L8.4,17.737A.875.875,0,0,0,9.022,18h0a.875.875,0,0,0,.621-.263l2.625-2.625a.885.885,0,0,0-1.138-1.356l-.1.1L9.949,14.946V9.9h5.119L13.9,11.026a.882.882,0,1,0,1.251,1.243l2.625-2.625a.866.866,0,0,0,0-1.243Z" transform="translate(0 0)" fill="#b4b4bf"/>
    </g>
    <g id="icon-duplicate" transform="translate(1379 143)" clip-path="url(#clip-path-2)">
      <path id="icon-duplicate-2" data-name="icon-duplicate" d="M17,7h2.25A1.746,1.746,0,0,1,21,8.75v10.5A1.746,1.746,0,0,1,19.25,21H8.75A1.746,1.746,0,0,1,7,19.25V17H4.75A1.746,1.746,0,0,1,3,15.25V4.75A1.746,1.746,0,0,1,4.75,3h10.5A1.746,1.746,0,0,1,17,4.75ZM15,7V5H5V15H7V8.75A1.746,1.746,0,0,1,8.75,7ZM9,9V19H19V9Z" transform="translate(-3 -3)" fill="#b4b4bf"/>
    </g>
    <rect id="Rectangle_140" data-name="Rectangle 140" width="64" height="64" rx="3" transform="translate(445 120)" fill="#fff"/>
    <rect id="Rectangle_141" data-name="Rectangle 141" width="1" height="34" rx="0.5" transform="translate(508 135)" fill="#f3f3f5"/>
    <text id="_1" data-name="1" transform="translate(477 158)" fill="#333340" font-size="15" font-family="SegoeUI, Segoe UI"><tspan x="-4.043" y="0">1</tspan></text>
    <g id="logic" transform="translate(1298 144)" clip-path="url(#clip-path-3)">
      <path id="Path_111" data-name="Path 111" d="M38.164,14.463a2.959,2.959,0,0,0-.643,5.844v2.145A1.952,1.952,0,0,1,35.572,24.4H30.661a3.216,3.216,0,0,0-1.949.643V20.307a2.959,2.959,0,1,0-1.286,0V31.474a2.959,2.959,0,1,0,1.286,0V27.64a1.952,1.952,0,0,1,1.949-1.949h4.908a3.239,3.239,0,0,0,3.239-3.236V20.307a2.959,2.959,0,0,0-.643-5.844Zm-8.427,19.9a1.672,1.672,0,1,1-1.672-1.672A1.672,1.672,0,0,1,29.738,34.359ZM28.065,19.095a1.672,1.672,0,1,1,1.672-1.672A1.672,1.672,0,0,1,28.065,19.095Zm10.1,0a1.672,1.672,0,1,1,1.672-1.672,1.672,1.672,0,0,1-1.672,1.672Z" transform="translate(37.321 -25.109) rotate(90)" fill="#b4b4bf" stroke="#b4b4bf" stroke-width="0.7"/>
    </g>
    <g id="icon-trash" transform="translate(1417 143)" clip-path="url(#clip-path-2)">
      <path id="icon-trash-2" data-name="icon-trash" d="M7.4,5.6V3.8A1.805,1.805,0,0,1,9.2,2h3.6a1.8,1.8,0,0,1,1.8,1.8V5.6h4.5a.9.9,0,1,1,0,1.8h-.9V18.2A1.8,1.8,0,0,1,16.4,20H5.6a1.8,1.8,0,0,1-1.8-1.8V7.4H2.9a.9.9,0,0,1,0-1.8ZM5.6,7.4V18.2H16.4V7.4Zm7.2-1.8V3.8H9.2V5.6ZM9.2,9.2a.9.9,0,0,1,.9.9v5.4a.9.9,0,1,1-1.8,0V10.1A.9.9,0,0,1,9.2,9.2Zm3.6,0a.9.9,0,0,1,.9.9v5.4a.9.9,0,1,1-1.8,0V10.1A.9.9,0,0,1,12.8,9.2Z" transform="translate(-2 -2)" fill="#b4b4bf"/>
    </g>
  </g>
</svg>
