<svg xmlns="http://www.w3.org/2000/svg" xmlns:xlink="http://www.w3.org/1999/xlink" width="18" height="18" viewBox="0 0 18 18">
  <defs>
    <clipPath id="clip-path">
      <rect width="18" height="18" fill="none"/>
    </clipPath>
  </defs>
  <g id="icon-duplicate" clip-path="url(#clip-path)">
    <path id="icon-duplicate-2" data-name="icon-duplicate" d="M17,7h2.25A1.746,1.746,0,0,1,21,8.75v10.5A1.746,1.746,0,0,1,19.25,21H8.75A1.746,1.746,0,0,1,7,19.25V17H4.75A1.746,1.746,0,0,1,3,15.25V4.75A1.746,1.746,0,0,1,4.75,3h10.5A1.746,1.746,0,0,1,17,4.75ZM15,7V5H5V15H7V8.75A1.746,1.746,0,0,1,8.75,7ZM9,9V19H19V9Z" transform="translate(-3 -3)" fill="#b4b4bf"/>
  </g>
</svg>
