<svg xmlns="http://www.w3.org/2000/svg" width="20" height="20" viewBox="0 0 20 20">
  <path id="icon-grid" d="M5.222,3H9.667a2.222,2.222,0,0,1,2.222,2.222V9.667a2.222,2.222,0,0,1-2.222,2.222H5.222A2.222,2.222,0,0,1,3,9.667V5.222A2.229,2.229,0,0,1,5.222,3Zm0,2.222V9.667H9.667V5.222ZM16.333,3h4.444A2.222,2.222,0,0,1,23,5.222V9.667a2.222,2.222,0,0,1-2.222,2.222H16.333a2.222,2.222,0,0,1-2.222-2.222V5.222A2.229,2.229,0,0,1,16.333,3Zm0,2.222V9.667h4.444V5.222ZM5.222,14.111H9.667a2.222,2.222,0,0,1,2.222,2.222v4.444A2.222,2.222,0,0,1,9.667,23H5.222A2.222,2.222,0,0,1,3,20.778V16.333A2.229,2.229,0,0,1,5.222,14.111Zm0,2.222v4.444H9.667V16.333Zm11.111-2.222h4.444A2.222,2.222,0,0,1,23,16.333v4.444A2.222,2.222,0,0,1,20.778,23H16.333a2.222,2.222,0,0,1-2.222-2.222V16.333A2.229,2.229,0,0,1,16.333,14.111Zm0,2.222v4.444h4.444V16.333Z" transform="translate(-3 -3)" fill="#fd6969"/>
</svg>
