<svg xmlns="http://www.w3.org/2000/svg" xmlns:xlink="http://www.w3.org/1999/xlink" width="18" height="18" viewBox="0 0 18 18">
  <defs>
    <clipPath id="clip-path">
      <rect width="18" height="18" fill="none"/>
    </clipPath>
  </defs>
  <g id="icon-trash" clip-path="url(#clip-path)">
    <path id="icon-trash-2" data-name="icon-trash" d="M7.4,5.6V3.8A1.805,1.805,0,0,1,9.2,2h3.6a1.8,1.8,0,0,1,1.8,1.8V5.6h4.5a.9.9,0,1,1,0,1.8h-.9V18.2A1.8,1.8,0,0,1,16.4,20H5.6a1.8,1.8,0,0,1-1.8-1.8V7.4H2.9a.9.9,0,0,1,0-1.8ZM5.6,7.4V18.2H16.4V7.4Zm7.2-1.8V3.8H9.2V5.6ZM9.2,9.2a.9.9,0,0,1,.9.9v5.4a.9.9,0,1,1-1.8,0V10.1A.9.9,0,0,1,9.2,9.2Zm3.6,0a.9.9,0,0,1,.9.9v5.4a.9.9,0,1,1-1.8,0V10.1A.9.9,0,0,1,12.8,9.2Z" transform="translate(-2 -2)" fill="#b4b4bf"/>
  </g>
</svg>
