<svg xmlns="http://www.w3.org/2000/svg" xmlns:xlink="http://www.w3.org/1999/xlink" width="22.861" height="16" viewBox="0 0 22.861 16">
  <defs>
    <clipPath id="clip-path">
      <rect width="22.861" height="16" fill="none"/>
    </clipPath>
  </defs>
  <g id="logic" clip-path="url(#clip-path)">
    <path id="Path_111" data-name="Path 111" d="M38.164,14.463a2.959,2.959,0,0,0-.643,5.844v2.145A1.952,1.952,0,0,1,35.572,24.4H30.661a3.216,3.216,0,0,0-1.949.643V20.307a2.959,2.959,0,1,0-1.286,0V31.474a2.959,2.959,0,1,0,1.286,0V27.64a1.952,1.952,0,0,1,1.949-1.949h4.908a3.239,3.239,0,0,0,3.239-3.236V20.307a2.959,2.959,0,0,0-.643-5.844Zm-8.427,19.9a1.672,1.672,0,1,1-1.672-1.672A1.672,1.672,0,0,1,29.738,34.359ZM28.065,19.095a1.672,1.672,0,1,1,1.672-1.672A1.672,1.672,0,0,1,28.065,19.095Zm10.1,0a1.672,1.672,0,1,1,1.672-1.672,1.672,1.672,0,0,1-1.672,1.672Z" transform="translate(37.321 -25.109) rotate(90)" fill="#b4b4bf" stroke="#b4b4bf" stroke-width="0.7"/>
  </g>
</svg>
