<svg id="long_text-24px" xmlns="http://www.w3.org/2000/svg" width="22" height="22" viewBox="0 0 22 22">
  <path id="Path_286" data-name="Path 286" d="M0,0H22V22H0Z" fill="none"/>
  <path id="Path_287" data-name="Path 287" d="M10.08,6.42h7.33a.92.92,0,0,1,0,1.83H10.08a.92.92,0,0,1,0-1.83Z" fill="#767680" opacity="0.2"/>
  <path id="Path_288" data-name="Path 288" d="M4.58,6.42H7.33a.92.92,0,0,1,0,1.83H4.58a.92.92,0,0,1,0-1.83Z" fill="#767680" opacity="0.2"/>
  <path id="Path_289" data-name="Path 289" d="M10.08,10.08h7.33a.92.92,0,0,1,0,1.83H10.08a.92.92,0,0,1,0-1.83Z" fill="#767680"/>
  <path id="Path_290" data-name="Path 290" d="M4.58,10.08H7.33a.92.92,0,0,1,0,1.83H4.58a.92.92,0,0,1,0-1.83Z" fill="#767680"/>
  <path id="Path_291" data-name="Path 291" d="M10.08,13.75h7.33a.92.92,0,1,1,.06,1.83H10.08A.92.92,0,0,1,10,13.75Z" fill="#767680" opacity="0.2"/>
  <path id="Path_292" data-name="Path 292" d="M4.58,13.75H7.33a.92.92,0,0,1,.06,1.83H4.58a.92.92,0,0,1-.06-1.83Z" fill="#767680" opacity="0.2"/>
</svg>
