<svg xmlns="http://www.w3.org/2000/svg" xmlns:xlink="http://www.w3.org/1999/xlink" width="18.044" height="18" viewBox="0 0 18.044 18">
  <defs>
    <clipPath id="clip-path">
      <rect width="18.044" height="18" fill="none"/>
    </clipPath>
  </defs>
  <g id="move" clip-path="url(#clip-path)">
    <path id="move-2" data-name="move" d="M17.781,8.4,15.252,5.9A.888.888,0,1,0,14,7.158l.989.989H9.9V3.019L11.1,4.227a.805.805,0,0,0,.63.263.881.881,0,0,0,.621-1.505L9.626.263a.877.877,0,0,0-1.251,0L5.749,2.888A.882.882,0,1,0,7,4.13L8.129,3.01V8.129H3.019L4.174,7A.885.885,0,0,0,3.036,5.644l-.1.1L.263,8.383a.866.866,0,0,0,0,1.243l2.564,2.625a.875.875,0,0,0,.621.263h0a.881.881,0,0,0,.621-1.505L3.01,9.9H8.129v5.11L7,13.852a.879.879,0,0,0-1.225,1.26L8.4,17.737A.875.875,0,0,0,9.022,18h0a.875.875,0,0,0,.621-.263l2.625-2.625a.885.885,0,0,0-1.138-1.356l-.1.1L9.949,14.946V9.9h5.119L13.9,11.026a.882.882,0,1,0,1.251,1.243l2.625-2.625a.866.866,0,0,0,0-1.243Z" transform="translate(0 0)" fill="#b4b4bf"/>
  </g>
</svg>
