<svg xmlns="http://www.w3.org/2000/svg" width="38.513" height="36.823" viewBox="0 0 38.513 36.823">
  <path id="Path_187" data-name="Path 187" d="M39.909,15.887l-10.89-.945L24.766,4.929a2.251,2.251,0,0,0-4.14,0L16.374,14.964l-10.867.922a2.245,2.245,0,0,0-1.283,3.938l8.257,7.155L10.006,37.6a2.245,2.245,0,0,0,3.352,2.43L22.7,34.4l9.337,5.648a2.245,2.245,0,0,0,3.352-2.43L32.911,26.979l8.258-7.155a2.24,2.24,0,0,0-1.26-3.937ZM22.7,30.2,14.236,35.3l2.25-9.63-7.47-6.48,9.855-.855L22.7,9.272l3.847,9.09,9.855.855-7.47,6.48,2.25,9.63Z" transform="translate(-3.443 -3.563)" fill="#b4b4bf"/>
</svg>
