<svg xmlns="http://www.w3.org/2000/svg" width="16.5" height="16.5" viewBox="0 0 16.5 16.5">
  <path id="Path_127" data-name="Path 127" d="M17.667,3H4.833A1.839,1.839,0,0,0,3,4.833V17.667A1.839,1.839,0,0,0,4.833,19.5H17.667A1.839,1.839,0,0,0,19.5,17.667V4.833A1.839,1.839,0,0,0,17.667,3Zm0,14.667H4.833V4.833H17.667ZM16.108,7.858h0a.886.886,0,0,0-1.283,0L9.417,13.267,7.675,11.525a.886.886,0,0,0-1.283,0h0a.886.886,0,0,0,0,1.283l2.383,2.383a.886.886,0,0,0,1.283,0l6.05-6.05A.886.886,0,0,0,16.108,7.858Z" transform="translate(-3 -3)" fill="#767680"/>
</svg>
