<svg xmlns="http://www.w3.org/2000/svg" width="16" height="16" viewBox="0 0 16 16">
  <path id="Path_185" data-name="Path 185" d="M8,16a8,8,0,1,1,8-8A8.024,8.024,0,0,1,8,16ZM2.96,4.08A5.677,5.677,0,0,0,1.68,7.2H2.4a.756.756,0,0,1,.8.8.756.756,0,0,1-.8.8H1.68a6.569,6.569,0,0,0,1.04,2.8A7.81,7.81,0,0,1,7.2,9.68V5.6A.756.756,0,0,1,8,4.8a.756.756,0,0,1,.8.8V9.68a8.121,8.121,0,0,1,4.48,1.92,5.673,5.673,0,0,0,1.04-2.8H13.6a.756.756,0,0,1-.8-.8.756.756,0,0,1,.8-.8h.72a6.337,6.337,0,0,0-1.28-3.12l-.56.56a.792.792,0,0,1-1.12-1.12l.56-.56A6.337,6.337,0,0,0,8.8,1.68V2.4a.756.756,0,0,1-.8.8.756.756,0,0,1-.8-.8V1.68A5.446,5.446,0,0,0,4.08,2.96l.56.56A.792.792,0,0,1,3.52,4.64l-.56-.56Zm.8,8.72a6.359,6.359,0,0,0,8.48,0A6.359,6.359,0,0,0,3.76,12.8Z" fill="#767680"/>
</svg>
