<svg xmlns="http://www.w3.org/2000/svg" width="16.5" height="18.333" viewBox="0 0 16.5 18.333">
  <path id="Path_129" data-name="Path 129" d="M6.667,10.25H8.5v1.833H6.667ZM19.5,5.667V18.5a1.839,1.839,0,0,1-1.833,1.833H4.833A1.839,1.839,0,0,1,3,18.5V5.667A1.839,1.839,0,0,1,4.833,3.833H5.75V2.917A.866.866,0,0,1,6.667,2h0a.866.866,0,0,1,.917.917v.917h7.333V2.917A.866.866,0,0,1,15.833,2h0a.866.866,0,0,1,.917.917v.917h.917A1.839,1.839,0,0,1,19.5,5.667ZM4.833,7.5H17.667V5.667H4.833Zm12.833,11V9.333H4.833V18.5ZM14,12.083h1.833V10.25H14Zm-3.667,0h1.833V10.25H10.333Z" transform="translate(-3 -2)" fill="#767680"/>
</svg>
