<svg id="round-list_alt-24px" xmlns="http://www.w3.org/2000/svg" viewBox="0 0 22 22">
  <defs>
    <style>
      .cls-1 {
        fill: none;
      }

      .cls-2 {
        fill: #b4b4bf;
      }
    </style>
  </defs>
  <path id="Path_262" data-name="Path 262" class="cls-1" d="M0,0H22V22H0Z"/>
  <path id="Path_263" data-name="Path 263" class="cls-2" d="M11.25,8.5h3.667a.917.917,0,0,0,0-1.833H11.25a.917.917,0,1,0,0,1.833Zm0,3.667h3.667a.917.917,0,0,0,0-1.833H11.25a.917.917,0,0,0,0,1.833Zm0,3.667h3.667a.917.917,0,0,0,0-1.833H11.25a.917.917,0,1,0,0,1.833ZM6.667,6.667H8.5V8.5H6.667Zm0,3.667H8.5v1.833H6.667Zm0,3.667H8.5v1.833H6.667ZM18.583,3H3.917A.919.919,0,0,0,3,3.917V18.583a.919.919,0,0,0,.917.917H18.583a.919.919,0,0,0,.917-.917V3.917A.919.919,0,0,0,18.583,3Zm-.917,14.667H4.833V4.833H17.667Z" transform="translate(-0.25 -0.25)"/>
</svg>
