<svg xmlns="http://www.w3.org/2000/svg" viewBox="0 0 22 22">
  <defs>
    <style>
      .cls-1 {
        fill: none;
      }

      .cls-2 {
        fill: #767680;
      }
    </style>
  </defs>
  <g id="round-star_border-24px" transform="translate(-95 -133)">
    <path id="Path_186" data-name="Path 186" class="cls-1" d="M0,0H22V22H0Z" transform="translate(95 133)"/>
    <path id="Path_187" data-name="Path 187" class="cls-2" d="M18.3,8.584,13.863,8.2,12.13,4.119a.917.917,0,0,0-1.687,0L8.711,8.208l-4.427.376a.915.915,0,0,0-.523,1.6L7.125,13.1,6.117,17.429a.915.915,0,0,0,1.366.99l3.8-2.292,3.8,2.3a.915.915,0,0,0,1.366-.99L15.449,13.1l3.364-2.915a.913.913,0,0,0-.513-1.6Zm-7.012,5.83L7.84,16.494l.917-3.923L5.714,9.931l4.015-.348,1.558-3.694,1.568,3.7,4.015.348-3.043,2.64.917,3.923Z" transform="translate(94.713 132.703)"/>
  </g>
</svg>
