<svg id="round-list-24px" xmlns="http://www.w3.org/2000/svg" viewBox="0 0 22 22">
  <defs>
    <style>
      .cls-1, .cls-2 {
        fill: none;
      }

      .cls-2 {
        opacity: 0.87;
      }

      .cls-3 {
        fill: #767680;
      }
    </style>
  </defs>
  <g id="Group_353" data-name="Group 353">
    <path id="Path_181" data-name="Path 181" class="cls-1" d="M0,0H22V22H0Z"/>
    <path id="Path_182" data-name="Path 182" class="cls-2" d="M0,0H22V22H0Z"/>
  </g>
  <path id="Path_183" data-name="Path 183" class="cls-3" d="M3.917,12.5A.917.917,0,1,0,3,11.583.919.919,0,0,0,3.917,12.5Zm0,3.667A.917.917,0,1,0,3,15.25.919.919,0,0,0,3.917,16.167Zm0-7.333A.917.917,0,1,0,3,7.917.919.919,0,0,0,3.917,8.833ZM7.583,12.5h11a.917.917,0,1,0,0-1.833h-11a.917.917,0,1,0,0,1.833Zm0,3.667h11a.917.917,0,1,0,0-1.833h-11a.917.917,0,1,0,0,1.833Zm-.917-8.25a.919.919,0,0,0,.917.917h11a.917.917,0,1,0,0-1.833h-11A.919.919,0,0,0,6.667,7.917ZM3.917,12.5A.917.917,0,1,0,3,11.583.919.919,0,0,0,3.917,12.5Zm0,3.667A.917.917,0,1,0,3,15.25.919.919,0,0,0,3.917,16.167Zm0-7.333A.917.917,0,1,0,3,7.917.919.919,0,0,0,3.917,8.833ZM7.583,12.5h11a.917.917,0,1,0,0-1.833h-11a.917.917,0,1,0,0,1.833Zm0,3.667h11a.917.917,0,1,0,0-1.833h-11a.917.917,0,1,0,0,1.833Zm-.917-8.25a.919.919,0,0,0,.917.917h11a.917.917,0,1,0,0-1.833h-11A.919.919,0,0,0,6.667,7.917Z" transform="translate(-0.25 -0.583)"/>
</svg>
