<svg id="round-apps-edit-24px" xmlns="http://www.w3.org/2000/svg" viewBox="0 0 22 22">
  <defs>
    <style>
      .cls-1 {
        fill: none;
      }

      .cls-2 {
        fill: #767680;
      }
    </style>
  </defs>
  <path id="Path_195" data-name="Path 195" class="cls-1" d="M0,0H22V22H0Z"/>
  <path id="Path_196" data-name="Path 196" class="cls-2" d="M5.833,7.667h0A1.833,1.833,0,0,0,7.667,5.833h0A1.833,1.833,0,0,0,5.833,4h0A1.833,1.833,0,0,0,4,5.833H4A1.833,1.833,0,0,0,5.833,7.667Zm5.5,11h0a1.833,1.833,0,0,0,1.833-1.833h0A1.833,1.833,0,0,0,11.333,15h0A1.833,1.833,0,0,0,9.5,16.833h0A1.833,1.833,0,0,0,11.333,18.667Zm-5.5,0h0a1.833,1.833,0,0,0,1.833-1.833h0A1.833,1.833,0,0,0,5.833,15h0A1.833,1.833,0,0,0,4,16.833H4A1.833,1.833,0,0,0,5.833,18.667Zm0-5.5h0a1.833,1.833,0,0,0,1.833-1.833h0A1.833,1.833,0,0,0,5.833,9.5h0A1.833,1.833,0,0,0,4,11.333H4A1.833,1.833,0,0,0,5.833,13.167Zm5.5,0h0a1.833,1.833,0,0,0,1.833-1.833h0A1.833,1.833,0,0,0,11.333,9.5h0A1.833,1.833,0,0,0,9.5,11.333h0A1.833,1.833,0,0,0,11.333,13.167ZM15,5.833h0a1.833,1.833,0,0,0,1.833,1.833h0a1.833,1.833,0,0,0,1.833-1.833h0A1.833,1.833,0,0,0,16.833,4h0A1.833,1.833,0,0,0,15,5.833ZM11.333,7.667h0a1.833,1.833,0,0,0,1.833-1.833h0A1.833,1.833,0,0,0,11.333,4h0A1.833,1.833,0,0,0,9.5,5.833h0A1.833,1.833,0,0,0,11.333,7.667Zm5.5,5.5h0a1.833,1.833,0,0,0,1.833-1.833h0A1.833,1.833,0,0,0,16.833,9.5h0A1.833,1.833,0,0,0,15,11.333h0A1.833,1.833,0,0,0,16.833,13.167Zm0,5.5h0a1.833,1.833,0,0,0,1.833-1.833h0A1.833,1.833,0,0,0,16.833,15h0A1.833,1.833,0,0,0,15,16.833h0A1.833,1.833,0,0,0,16.833,18.667Z" transform="translate(-0.333 -0.333)"/>
</svg>
