<svg id="round-bar_chart-24px" xmlns="http://www.w3.org/2000/svg" viewBox="0 0 22 22">
  <defs>
    <style>
      .cls-1 {
        fill: none;
      }

      .cls-2 {
        fill: #767680;
      }
    </style>
  </defs>
  <path id="Path_130" data-name="Path 130" class="cls-1" d="M0,0H22V22H0Z"/>
  <path id="Path_131" data-name="Path 131" class="cls-2" d="M6.283,8.85h.183A1.287,1.287,0,0,1,7.75,10.133V16.55a1.287,1.287,0,0,1-1.283,1.283H6.283A1.287,1.287,0,0,1,5,16.55V10.133A1.287,1.287,0,0,1,6.283,8.85ZM11.417,5A1.287,1.287,0,0,1,12.7,6.283V16.55a1.283,1.283,0,0,1-2.567,0V6.283A1.287,1.287,0,0,1,11.417,5Zm5.133,7.333a1.287,1.287,0,0,1,1.283,1.283V16.55a1.283,1.283,0,0,1-2.567,0V13.617A1.287,1.287,0,0,1,16.55,12.333Z" transform="translate(-0.417 -0.417)"/>
</svg>
