<svg id="round-person_outline-24px" xmlns="http://www.w3.org/2000/svg" viewBox="0 0 22 22">
  <defs>
    <style>
      .cls-1 {
        fill: none;
      }

      .cls-2 {
        fill: #b4b4bf;
      }
    </style>
  </defs>
  <path id="Path_202" data-name="Path 202" class="cls-1" d="M0,0H22V22H0Z"/>
  <path id="Path_203" data-name="Path 203" class="cls-2" d="M11.333,5.742A1.925,1.925,0,1,1,9.408,7.667a1.925,1.925,0,0,1,1.925-1.925m0,8.25c2.722,0,5.592,1.338,5.592,1.925v1.008H5.742V15.917c0-.587,2.869-1.925,5.592-1.925m0-9.992A3.667,3.667,0,1,0,15,7.667,3.666,3.666,0,0,0,11.333,4Zm0,8.25C8.886,12.25,4,13.478,4,15.917V17.75a.919.919,0,0,0,.917.917H17.75a.919.919,0,0,0,.917-.917V15.917C18.667,13.478,13.781,12.25,11.333,12.25Z" transform="translate(-0.333 -0.333)"/>
</svg>
