<svg id="scale-apps-24px" xmlns="http://www.w3.org/2000/svg" width="22" height="22" viewBox="0 0 22 22">
  <path id="Path_197" data-name="Path 197" d="M0,0H22V22H0Z" fill="none"/>
  <path id="Path_198" data-name="Path 198" d="M5.833,10.667a1.833,1.833,0,0,0,1.7-1.146H9.637a1.833,1.833,0,0,0,3.392,0h2.108a1.833,1.833,0,1,0,0-1.375H13.029a1.833,1.833,0,0,0-3.392,0H7.529a1.833,1.833,0,1,0-1.7,2.521Z" transform="translate(-0.333 -0.583)" fill="#767680"/>
  <path id="Path_199" data-name="Path 199" d="M16.833,13a1.833,1.833,0,0,0-1.7,1.146H13.029a1.833,1.833,0,0,0-3.392,0H7.529a1.833,1.833,0,1,0,0,1.375H9.637a1.833,1.833,0,0,0,3.392,0h2.108A1.833,1.833,0,1,0,16.833,13Z" transform="translate(-0.333 -1.083)" fill="#767680"/>
</svg>
