<svg xmlns="http://www.w3.org/2000/svg" xmlns:xlink="http://www.w3.org/1999/xlink" width="1920" height="1080" viewBox="0 0 1920 1080">
  <defs>
    <clipPath id="clip-path">
      <rect width="1920" height="1080" fill="none"/>
    </clipPath>
  </defs>
  <g id="Repeat_Grid_39" data-name="Repeat Grid 39" transform="translate(0 0)" clip-path="url(#clip-path)">
    <g id="Group_3953" data-name="Group 3953" transform="translate(-49.683 -10.476)">
      <circle id="Ellipse_87" data-name="Ellipse 87" cx="11.702" cy="11.702" r="11.702" transform="translate(1479.106 398.287)" fill="#3f82c7"/>
      <circle id="Ellipse_81" data-name="Ellipse 81" cx="14.254" cy="14.254" r="14.254" transform="translate(1774.525 419.716)" fill="#3f82c7"/>
      <circle id="Ellipse_79" data-name="Ellipse 79" cx="17.22" cy="17.22" r="17.22" transform="translate(1859.09 824.211)" fill="#3f82c7"/>
      <circle id="Ellipse_99" data-name="Ellipse 99" cx="1.409" cy="1.409" r="1.409" transform="translate(670.711 389.539)" fill="#3f82c7"/>
      <circle id="Ellipse_98" data-name="Ellipse 98" cx="1.294" cy="1.294" r="1.294" transform="translate(816.006 578.234)" fill="#3f82c7"/>
      <circle id="Ellipse_93" data-name="Ellipse 93" cx="4.799" cy="4.799" r="4.799" transform="translate(1204.48 502.352)" fill="#fa7268"/>
      <circle id="Ellipse_92" data-name="Ellipse 92" cx="3.255" cy="3.255" r="3.255" transform="translate(1155.26 640.113)" fill="#fa7268"/>
      <circle id="Ellipse_91" data-name="Ellipse 91" cx="3.197" cy="3.197" r="3.197" transform="translate(1157.07 892.7)" fill="#fa7268"/>
      <circle id="Ellipse_86" data-name="Ellipse 86" cx="2.552" cy="2.552" r="2.552" transform="translate(1385.436 587.786)" fill="#3f82c7"/>
      <circle id="Ellipse_85" data-name="Ellipse 85" cx="1.518" cy="1.518" r="1.518" transform="translate(1538.773 819.18)" fill="#fa7268"/>
      <circle id="Ellipse_80" data-name="Ellipse 80" cx="5.086" cy="5.086" r="5.086" transform="translate(1650.38 627.051)" fill="#3f82c7"/>
      <g id="Symbol_35_1" data-name="Symbol 35 – 1">
        <circle id="Ellipse_113" data-name="Ellipse 113" cx="16.375" cy="16.375" r="16.375" transform="translate(153.302 37.574)" fill="#fa7268"/>
        <circle id="Ellipse_108" data-name="Ellipse 108" cx="3.76" cy="3.76" r="3.76" transform="translate(270.577 1082.957)" fill="#fa7268"/>
        <circle id="Ellipse_105" data-name="Ellipse 105" cx="15.537" cy="15.537" r="15.537" transform="translate(1097.169 452.672)" fill="#3f82c7"/>
        <circle id="Ellipse_104" data-name="Ellipse 104" cx="4.557" cy="4.557" r="4.557" transform="translate(453.075 569.851)" fill="#3f82c7"/>
        <circle id="Ellipse_102" data-name="Ellipse 102" cx="10.49" cy="10.49" r="10.49" transform="translate(445.747 1025.955)" fill="#3f82c7"/>
        <circle id="Ellipse_100" data-name="Ellipse 100" cx="17.057" cy="17.057" r="17.057" transform="translate(816.408 284.643)" fill="#fa7268"/>
        <circle id="Ellipse_97" data-name="Ellipse 97" cx="17.595" cy="17.595" r="17.595" transform="translate(816.811 902.213)" fill="#fa7268"/>
        <circle id="Ellipse_88" data-name="Ellipse 88" cx="7.528" cy="7.528" r="7.528" transform="translate(1293.264 218.184)" fill="#3f82c7"/>
        <circle id="Ellipse_83" data-name="Ellipse 83" cx="15.591" cy="15.591" r="15.591" transform="translate(1938.502 102.568)" fill="#fa7268"/>
        <circle id="Ellipse_82" data-name="Ellipse 82" cx="9.843" cy="9.843" r="9.843" transform="translate(1925.35 213.24)" fill="#3f82c7"/>
        <circle id="Ellipse_112" data-name="Ellipse 112" cx="1.504" cy="1.504" r="1.504" transform="translate(84.736 192.188)" fill="#fa7268"/>
        <circle id="Ellipse_111" data-name="Ellipse 111" cx="1.975" cy="1.975" r="1.975" transform="translate(49.683 503.777)" fill="#fa7268"/>
        <circle id="Ellipse_110" data-name="Ellipse 110" cx="2.469" cy="2.469" r="2.469" transform="translate(142.045 552.722)" fill="#3f82c7"/>
        <circle id="Ellipse_109" data-name="Ellipse 109" cx="1.832" cy="1.832" r="1.832" transform="translate(276.948 739.634)" fill="#fa7268"/>
        <circle id="Ellipse_106" data-name="Ellipse 106" cx="4.697" cy="4.697" r="4.697" transform="translate(362.494 315.988)" fill="#3f82c7"/>
        <circle id="Ellipse_103" data-name="Ellipse 103" cx="4.421" cy="4.421" r="4.421" transform="translate(349.911 811.217)" fill="#fa7268"/>
        <circle id="Ellipse_101" data-name="Ellipse 101" cx="5.284" cy="5.284" r="5.284" transform="translate(728.799 91.48)" fill="#fa7268"/>
        <circle id="Ellipse_96" data-name="Ellipse 96" cx="2.559" cy="2.559" r="2.559" transform="translate(783.619 1060.804)" fill="#fa7268"/>
        <circle id="Ellipse_95" data-name="Ellipse 95" cx="3.575" cy="3.575" r="3.575" transform="translate(1148.824 76.741)" fill="#3f82c7"/>
        <circle id="Ellipse_94" data-name="Ellipse 94" cx="2.337" cy="2.337" r="2.337" transform="translate(1100.454 201.17)" fill="#3f82c7"/>
        <circle id="Ellipse_90" data-name="Ellipse 90" cx="5.405" cy="5.405" r="5.405" transform="translate(1218.75 933.331)" fill="#3f82c7"/>
        <circle id="Ellipse_89" data-name="Ellipse 89" cx="4.059" cy="4.059" r="4.059" transform="translate(1382.091 10.476)" fill="#3f82c7"/>
        <circle id="Ellipse_84" data-name="Ellipse 84" cx="3.503" cy="3.503" r="3.503" transform="translate(1581.578 1018.652)" fill="#fa7268"/>
        <circle id="Ellipse_78" data-name="Ellipse 78" cx="4.872" cy="4.872" r="4.872" transform="translate(1694.447 1050.294)" fill="#fa7268"/>
      </g>
    </g>
  </g>
</svg>
