<svg xmlns="http://www.w3.org/2000/svg" width="16.003" height="16" viewBox="0 0 16.003 16">
  <path id="icon-home" d="M10.791,16.4v-4h-1.6v4A1.6,1.6,0,0,1,7.59,18H5.19a1.6,1.6,0,0,1-1.6-1.6V10.331l-.24.24a.8.8,0,1,1-1.12-1.136l7.2-7.2a.8.8,0,0,1,1.12,0l7.2,7.2a.8.8,0,0,1-1.12,1.136l-.24-.24V16.4a1.6,1.6,0,0,1-1.6,1.6h-2.4a1.6,1.6,0,0,1-1.6-1.6Zm4,0V8.73l-4.8-4.8-4.8,4.8V16.4h2.4v-4a1.605,1.605,0,0,1,1.6-1.6h1.6a1.6,1.6,0,0,1,1.6,1.6v4Z" transform="translate(-1.945 -2.004)" fill="#767680"/>
</svg>
